<mxfile host="app.diagrams.net" modified="2024-03-06T12:20:06.220Z" agent="Mozilla/5.0 (Macintosh; Intel Mac OS X 10_15_7) AppleWebKit/537.36 (KHTML, like Gecko) Chrome/122.0.0.0 Safari/537.36" version="23.1.5" etag="UOm9P0H-jap2fcbLhS4f" type="github">
  <diagram name="Page-1" id="0KSkfwidzwNx0u2EBSdw">
    <mxGraphModel>
      <root>
        <mxCell id="0" />
        <mxCell id="1" parent="0" />
      </root>
    </mxGraphModel>
  </diagram>
</mxfile>
